# xmcd
#
# Track frame offsets: 
#        182
#        14055
#        27935
#        41910
#        55342
#        68257
#        82115
#        96312
#        110065
#        122790
#        133477
#        144812
#        157405
#        168655
#        181215
#        192312
#        203250
#        215182
#        223810
#        235895
#        248560
#        260855
#
# Disc length: 3676 seconds
#
# Revision: 0
# Processed by: cddbd v1.5PL3 Copyright (c) Steve Scherf et al.
# Submitted via: ExactAudioCopy v0.90b4
#
DISCID=5a0e5a16
DTITLE=Jimmy Reed - Big Boss Man Down In Virginia
DYEAR=1997
DGENRE=Blues
TTITLE0=Give And Let Me Go
TTITLE1=I'm Leavin
TTITLE2=Shame, Shame, Shame
TTITLE3=Run Here To Me Baby
TTITLE4=Life Is Funny
TTITLE5=Two In One Blue
TTITLE6=My Baby Told Me
TTITLE7=Five Years Of Good Lovin'
TTITLE8=When Two People In Love
TTITLE9=I've Got To Keep Rolin'
TTITLE10=When I Woke This Morning
TTITLE11=Sugar, Sugar Woman
TTITLE12=Don't Light My Fire
TTITLE13=Slow Walkin' Mama
TTITLE14=Jump And Shout
TTITLE15=Down In Virginia
TTITLE16=Check Yourself
TTITLE17=I Show An Arrow To The Sky
TTITLE18=Ghetto Woman Blues
TTITLE19=Big Boss Lady
TTITLE20=I Need You So
TTITLE21=The Judge Should Know
EXTD=
EXTT0=
EXTT1=
EXTT2=
EXTT3=
EXTT4=
EXTT5=
EXTT6=
EXTT7=
EXTT8=
EXTT9=
EXTT10=
EXTT11=
EXTT12=
EXTT13=
EXTT14=
EXTT15=
EXTT16=
EXTT17=
EXTT18=
EXTT19=
EXTT20=
EXTT21=
PLAYORDER=
